<mxfile host="app.diagrams.net" agent="Mozilla/5.0 (Windows NT 10.0; Win64; x64) AppleWebKit/537.36 (KHTML, like Gecko) Chrome/138.0.0.0 Safari/537.36" version="28.0.7">
  <diagram name="Page-1" id="k3tzlB8XghA4WyJ-DVOV">
    <mxGraphModel dx="2515" dy="1857" grid="1" gridSize="10" guides="1" tooltips="1" connect="1" arrows="1" fold="1" page="1" pageScale="1" pageWidth="850" pageHeight="1100" math="0" shadow="0">
      <root>
        <mxCell id="0" />
        <mxCell id="1" parent="0" />
        <mxCell id="D5ZYjX_9P_y3UZM8KzxZ-27" value="" style="rounded=1;whiteSpace=wrap;html=1;strokeColor=light-dark(#000000,#3415FF);" parent="1" vertex="1">
          <mxGeometry x="122.5" y="-420" width="180" height="110" as="geometry" />
        </mxCell>
        <mxCell id="D5ZYjX_9P_y3UZM8KzxZ-28" value="" style="rounded=1;whiteSpace=wrap;html=1;strokeColor=light-dark(#000000,#3415FF);" parent="1" vertex="1">
          <mxGeometry x="35" y="-1070" width="340" height="111.27" as="geometry" />
        </mxCell>
        <mxCell id="D5ZYjX_9P_y3UZM8KzxZ-29" value="" style="rounded=1;whiteSpace=wrap;html=1;strokeColor=light-dark(#000000,#3415FF);" parent="1" vertex="1">
          <mxGeometry x="590" y="-718" width="480" height="90" as="geometry" />
        </mxCell>
        <mxCell id="dIE_9AlhpWobjz6JdOX3-2" value="" style="rounded=1;whiteSpace=wrap;html=1;strokeColor=light-dark(#000000,#3333FF);" parent="1" vertex="1">
          <mxGeometry x="-740" y="-740" width="540" height="150" as="geometry" />
        </mxCell>
        <mxCell id="dIE_9AlhpWobjz6JdOX3-9" value="&lt;font style=&quot;font-size: 48px;&quot;&gt;Supplies (agit comme&amp;nbsp;&lt;/font&gt;&lt;div&gt;&lt;font style=&quot;font-size: 48px;&quot;&gt;produceur et command)&lt;/font&gt;&lt;/div&gt;" style="text;html=1;align=center;verticalAlign=middle;resizable=1;points=[];autosize=0;strokeColor=none;fillColor=none;" parent="1" vertex="1">
          <mxGeometry x="-553.5" y="-710" width="170" height="82" as="geometry" />
        </mxCell>
        <mxCell id="D5ZYjX_9P_y3UZM8KzxZ-30" value="&lt;font style=&quot;font-size: 48px;&quot;&gt;Audit&lt;/font&gt;" style="text;html=1;align=center;verticalAlign=middle;resizable=1;points=[];autosize=0;strokeColor=none;fillColor=none;" parent="1" vertex="1">
          <mxGeometry x="122.5" y="-400" width="170" height="82" as="geometry" />
        </mxCell>
        <mxCell id="D5ZYjX_9P_y3UZM8KzxZ-31" value="&lt;span style=&quot;font-size: 48px;&quot;&gt;Supplies-Event-Store&lt;/span&gt;" style="text;html=1;align=center;verticalAlign=middle;resizable=1;points=[];autosize=0;strokeColor=none;fillColor=none;" parent="1" vertex="1">
          <mxGeometry x="750" y="-714" width="170" height="82" as="geometry" />
        </mxCell>
        <mxCell id="D5ZYjX_9P_y3UZM8KzxZ-32" value="&lt;span style=&quot;font-size: 48px;&quot;&gt;Supplies-Query&lt;/span&gt;" style="text;html=1;align=center;verticalAlign=middle;resizable=1;points=[];autosize=0;strokeColor=none;fillColor=none;" parent="1" vertex="1">
          <mxGeometry x="119" y="-1056.73" width="170" height="82" as="geometry" />
        </mxCell>
        <mxCell id="D5ZYjX_9P_y3UZM8KzxZ-37" value="" style="rounded=1;whiteSpace=wrap;html=1;strokeColor=light-dark(#000000,#3333FF);" parent="1" vertex="1">
          <mxGeometry x="50" y="-729" width="325" height="120" as="geometry" />
        </mxCell>
        <mxCell id="D5ZYjX_9P_y3UZM8KzxZ-38" value="&lt;font style=&quot;font-size: 48px;&quot;&gt;RabbitMQ&lt;/font&gt;" style="text;html=1;align=center;verticalAlign=middle;resizable=1;points=[];autosize=0;strokeColor=none;fillColor=none;" parent="1" vertex="1">
          <mxGeometry x="127.5" y="-709" width="170" height="82" as="geometry" />
        </mxCell>
        <mxCell id="D5ZYjX_9P_y3UZM8KzxZ-39" value="" style="endArrow=classic;html=1;rounded=0;entryX=0;entryY=0.5;entryDx=0;entryDy=0;exitX=1;exitY=0.5;exitDx=0;exitDy=0;" parent="1" source="dIE_9AlhpWobjz6JdOX3-2" target="D5ZYjX_9P_y3UZM8KzxZ-37" edge="1">
          <mxGeometry width="50" height="50" relative="1" as="geometry">
            <mxPoint x="-430" y="-460" as="sourcePoint" />
            <mxPoint x="-380" y="-510" as="targetPoint" />
          </mxGeometry>
        </mxCell>
        <mxCell id="D5ZYjX_9P_y3UZM8KzxZ-40" value="publie un evenement&amp;nbsp;" style="text;html=1;align=center;verticalAlign=middle;resizable=0;points=[];autosize=1;strokeColor=none;fillColor=none;" parent="1" vertex="1">
          <mxGeometry x="-140" y="-702" width="140" height="30" as="geometry" />
        </mxCell>
        <mxCell id="D5ZYjX_9P_y3UZM8KzxZ-41" value="" style="endArrow=classic;html=1;rounded=0;entryX=0.5;entryY=0;entryDx=0;entryDy=0;exitX=0.5;exitY=1;exitDx=0;exitDy=0;" parent="1" source="D5ZYjX_9P_y3UZM8KzxZ-37" target="D5ZYjX_9P_y3UZM8KzxZ-27" edge="1">
          <mxGeometry width="50" height="50" relative="1" as="geometry">
            <mxPoint x="250" y="-440" as="sourcePoint" />
            <mxPoint x="300" y="-490" as="targetPoint" />
          </mxGeometry>
        </mxCell>
        <mxCell id="D5ZYjX_9P_y3UZM8KzxZ-42" value="consomme l&#39;evenement&lt;div&gt;et enregistre dans la bd&lt;/div&gt;" style="text;html=1;align=center;verticalAlign=middle;resizable=0;points=[];autosize=1;strokeColor=none;fillColor=none;" parent="1" vertex="1">
          <mxGeometry x="210" y="-540" width="150" height="40" as="geometry" />
        </mxCell>
        <mxCell id="D5ZYjX_9P_y3UZM8KzxZ-43" value="" style="endArrow=classic;html=1;rounded=0;entryX=0;entryY=0.5;entryDx=0;entryDy=0;exitX=1;exitY=0.5;exitDx=0;exitDy=0;" parent="1" source="D5ZYjX_9P_y3UZM8KzxZ-37" target="D5ZYjX_9P_y3UZM8KzxZ-29" edge="1">
          <mxGeometry width="50" height="50" relative="1" as="geometry">
            <mxPoint x="-170" y="-450" as="sourcePoint" />
            <mxPoint x="-120" y="-500" as="targetPoint" />
          </mxGeometry>
        </mxCell>
        <mxCell id="D5ZYjX_9P_y3UZM8KzxZ-44" value="si c&#39;est un evenement de&amp;nbsp;&lt;div&gt;supplies, le consomme et&lt;/div&gt;&lt;div&gt;l&#39;enregistre dans la bd&lt;/div&gt;" style="text;html=1;align=center;verticalAlign=middle;resizable=0;points=[];autosize=1;strokeColor=none;fillColor=none;" parent="1" vertex="1">
          <mxGeometry x="410" y="-732" width="160" height="60" as="geometry" />
        </mxCell>
        <mxCell id="D5ZYjX_9P_y3UZM8KzxZ-46" value="" style="endArrow=classic;html=1;rounded=0;entryX=0.5;entryY=1;entryDx=0;entryDy=0;exitX=0.5;exitY=0;exitDx=0;exitDy=0;" parent="1" source="D5ZYjX_9P_y3UZM8KzxZ-37" target="D5ZYjX_9P_y3UZM8KzxZ-28" edge="1">
          <mxGeometry width="50" height="50" relative="1" as="geometry">
            <mxPoint x="570" y="-500" as="sourcePoint" />
            <mxPoint x="570" y="-311" as="targetPoint" />
          </mxGeometry>
        </mxCell>
        <mxCell id="D5ZYjX_9P_y3UZM8KzxZ-47" value="si c&#39;est un evenement de&amp;nbsp;&lt;div&gt;supplies, le consomme et&lt;/div&gt;&lt;div&gt;l&#39;enregistre dans la bd&lt;/div&gt;" style="text;html=1;align=center;verticalAlign=middle;resizable=0;points=[];autosize=1;strokeColor=none;fillColor=none;" parent="1" vertex="1">
          <mxGeometry x="205" y="-910" width="160" height="60" as="geometry" />
        </mxCell>
        <mxCell id="D5ZYjX_9P_y3UZM8KzxZ-48" value="" style="endArrow=classic;startArrow=classic;html=1;rounded=0;entryX=0.5;entryY=0;entryDx=0;entryDy=0;exitX=1;exitY=0.5;exitDx=0;exitDy=0;" parent="1" source="D5ZYjX_9P_y3UZM8KzxZ-28" target="D5ZYjX_9P_y3UZM8KzxZ-29" edge="1">
          <mxGeometry width="50" height="50" relative="1" as="geometry">
            <mxPoint x="420" y="-900" as="sourcePoint" />
            <mxPoint x="470" y="-950" as="targetPoint" />
          </mxGeometry>
        </mxCell>
        <mxCell id="D5ZYjX_9P_y3UZM8KzxZ-49" value="possible de replay un event,&lt;div&gt;&amp;nbsp;les trouver etc.&lt;/div&gt;" style="text;html=1;align=center;verticalAlign=middle;resizable=0;points=[];autosize=1;strokeColor=none;fillColor=none;" parent="1" vertex="1">
          <mxGeometry x="550" y="-927" width="170" height="40" as="geometry" />
        </mxCell>
        <mxCell id="D5ZYjX_9P_y3UZM8KzxZ-51" value="" style="endArrow=classic;startArrow=classic;html=1;rounded=0;entryX=0;entryY=0.5;entryDx=0;entryDy=0;exitX=0.5;exitY=0;exitDx=0;exitDy=0;" parent="1" source="dIE_9AlhpWobjz6JdOX3-2" target="D5ZYjX_9P_y3UZM8KzxZ-28" edge="1">
          <mxGeometry width="50" height="50" relative="1" as="geometry">
            <mxPoint x="-230" y="-810" as="sourcePoint" />
            <mxPoint x="-180" y="-860" as="targetPoint" />
          </mxGeometry>
        </mxCell>
        <mxCell id="D5ZYjX_9P_y3UZM8KzxZ-52" value="stocke les evenements provenant&lt;div&gt;&amp;nbsp;du produceur + relation Command et Query&lt;/div&gt;" style="text;html=1;align=center;verticalAlign=middle;resizable=0;points=[];autosize=1;strokeColor=none;fillColor=none;" parent="1" vertex="1">
          <mxGeometry x="-470" y="-920" width="260" height="40" as="geometry" />
        </mxCell>
        <mxCell id="RqRUVIJ9l4AUGDJetFSY-1" value="" style="rounded=1;whiteSpace=wrap;html=1;strokeColor=light-dark(#000000,#3415FF);" parent="1" vertex="1">
          <mxGeometry x="510" y="-490" width="180" height="110" as="geometry" />
        </mxCell>
        <mxCell id="RqRUVIJ9l4AUGDJetFSY-2" value="&lt;font style=&quot;font-size: 48px;&quot;&gt;Notif&lt;/font&gt;" style="text;html=1;align=center;verticalAlign=middle;resizable=1;points=[];autosize=0;strokeColor=none;fillColor=none;" parent="1" vertex="1">
          <mxGeometry x="515" y="-476" width="170" height="82" as="geometry" />
        </mxCell>
        <mxCell id="RqRUVIJ9l4AUGDJetFSY-3" value="" style="endArrow=classic;html=1;rounded=0;entryX=0;entryY=0;entryDx=0;entryDy=0;exitX=1;exitY=1;exitDx=0;exitDy=0;" parent="1" source="D5ZYjX_9P_y3UZM8KzxZ-37" target="RqRUVIJ9l4AUGDJetFSY-1" edge="1">
          <mxGeometry width="50" height="50" relative="1" as="geometry">
            <mxPoint x="410" y="-600" as="sourcePoint" />
            <mxPoint x="410" y="-411" as="targetPoint" />
          </mxGeometry>
        </mxCell>
        <mxCell id="RqRUVIJ9l4AUGDJetFSY-4" value="consomme l&#39;evenement" style="text;html=1;align=center;verticalAlign=middle;resizable=0;points=[];autosize=1;strokeColor=none;fillColor=none;" parent="1" vertex="1">
          <mxGeometry x="450" y="-565" width="150" height="30" as="geometry" />
        </mxCell>
        <mxCell id="2C6NbhmiTygLgyzR57QK-1" value="" style="rounded=0;whiteSpace=wrap;html=1;" vertex="1" parent="1">
          <mxGeometry x="-740" y="-530" width="540" height="180" as="geometry" />
        </mxCell>
        <mxCell id="2C6NbhmiTygLgyzR57QK-2" value="&lt;span style=&quot;font-size: 48px;&quot;&gt;Légende:&lt;/span&gt;" style="text;html=1;align=center;verticalAlign=middle;resizable=1;points=[];autosize=0;strokeColor=none;fillColor=none;" vertex="1" parent="1">
          <mxGeometry x="-710" y="-530" width="170" height="82" as="geometry" />
        </mxCell>
        <mxCell id="2C6NbhmiTygLgyzR57QK-3" value="" style="endArrow=classic;html=1;rounded=0;" edge="1" parent="1">
          <mxGeometry width="50" height="50" relative="1" as="geometry">
            <mxPoint x="-720" y="-430" as="sourcePoint" />
            <mxPoint x="-620" y="-430" as="targetPoint" />
          </mxGeometry>
        </mxCell>
        <mxCell id="2C6NbhmiTygLgyzR57QK-4" value="Réprésente le flux/relation logique entre les services" style="text;html=1;align=center;verticalAlign=middle;resizable=0;points=[];autosize=1;strokeColor=none;fillColor=none;" vertex="1" parent="1">
          <mxGeometry x="-610" y="-448" width="300" height="30" as="geometry" />
        </mxCell>
        <mxCell id="2C6NbhmiTygLgyzR57QK-5" value="NOTE: il n&#39;y a pas de communications directes, outre&lt;div&gt;&amp;nbsp;que supplies qui connait l&#39;adresse de RabbitMQ&lt;/div&gt;" style="text;html=1;align=center;verticalAlign=middle;resizable=0;points=[];autosize=1;strokeColor=none;fillColor=none;" vertex="1" parent="1">
          <mxGeometry x="-735" y="-400" width="310" height="40" as="geometry" />
        </mxCell>
      </root>
    </mxGraphModel>
  </diagram>
</mxfile>
